<?xml version="1.0" encoding="utf-8"?>
<!-- Generator: Adobe Illustrator 22.1.0, SVG Export Plug-In . SVG Version: 6.00 Build 0)  -->
<svg version="1.1" id="Capa_1" xmlns="http://www.w3.org/2000/svg" xmlns:xlink="http://www.w3.org/1999/xlink" x="0px" y="0px"
	 viewBox="0 0 616.7 80" style="enable-background:new 0 0 616.7 80;" xml:space="preserve">
<style type="text/css">
	.st0{fill:#FFFFFF;}
	.st1{fill:none;stroke:#27DDE8;stroke-width:2;}
	.st2{fill:#FE01D6;}
</style>
<rect x="13.4" y="10.6" class="st0" width="18" height="58.8"/>
<g>
	<path class="st1" d="M80.1,56.4H63.3l-4.1,12.1H48.5l19.7-55.1h7.9l19.7,55.1H84.5L80.1,56.4z M66.1,47.8h11.7l-4.1-12.2L72.1,27
		h-0.4l-1.6,8.7L66.1,47.8z"/>
	<path class="st1" d="M128.5,68.5H99.7V22.9h8.9v37.6h19.9V68.5z"/>
	<path class="st1" d="M153.7,13.8c1.1-0.2,2.3-0.3,3.7-0.4c1.4-0.1,2.8-0.2,4.3-0.2c1.5-0.1,2.9-0.1,4.3-0.1c1.4,0,2.6,0,3.7,0
		c4.8,0,9,0.7,12.4,2c3.4,1.4,6.2,3.3,8.4,5.7c2.1,2.4,3.7,5.4,4.7,8.8c1,3.4,1.5,7.1,1.5,11.2c0,3.7-0.5,7.3-1.4,10.7
		c-0.9,3.4-2.5,6.5-4.7,9.1c-2.2,2.7-5.1,4.8-8.6,6.4c-3.6,1.6-8,2.4-13.2,2.4c-0.8,0-1.9,0-3.3-0.1c-1.4-0.1-2.8-0.1-4.3-0.2
		c-1.5-0.1-2.9-0.2-4.3-0.2c-1.4-0.1-2.4-0.2-3-0.3V13.8z M170.5,22.6c-1.1,0-2.3,0-3.5,0.1c-1.2,0.1-2,0.1-2.6,0.2v36.6
		c0.2,0.1,0.6,0.1,1.1,0.1c0.5,0,1,0.1,1.6,0.1c0.6,0,1.1,0.1,1.6,0.1c0.5,0,0.9,0,1.2,0c3,0,5.5-0.5,7.5-1.6c2-1.1,3.6-2.5,4.8-4.3
		c1.2-1.8,2-3.8,2.5-6.1c0.5-2.3,0.7-4.7,0.7-7.1c0-2.1-0.2-4.3-0.6-6.4c-0.4-2.2-1.2-4.1-2.3-5.8c-1.1-1.7-2.6-3.1-4.6-4.2
		C175.9,23.1,173.5,22.6,170.5,22.6z"/>
	<path class="st1" d="M203.5,22.9h27v7.9h-18.1v10.6h16.5v7.9h-16.5v11.1h18.4v7.9h-27.3V22.9z"/>
	<path class="st1" d="M257.1,56.3c0-1.4-0.5-2.5-1.5-3.4c-1-0.9-2.3-1.7-3.8-2.4c-1.5-0.7-3.2-1.5-5-2.2c-1.8-0.8-3.5-1.7-5-2.8
		c-1.5-1.1-2.8-2.5-3.8-4.1c-1-1.6-1.5-3.8-1.5-6.3c0-2.2,0.4-4.1,1.1-5.8c0.7-1.6,1.8-3,3.2-4.1c1.4-1.1,3-1.9,4.9-2.4
		c1.9-0.5,3.9-0.8,6.3-0.8c2.6,0,5.1,0.2,7.5,0.7c2.3,0.5,4.3,1.1,5.8,2l-2.8,7.5c-1-0.6-2.4-1.2-4.3-1.7c-1.9-0.5-4-0.7-6.2-0.7
		c-2.1,0-3.7,0.4-4.8,1.2c-1.1,0.8-1.7,1.9-1.7,3.3c0,1.3,0.5,2.4,1.5,3.3c1,0.9,2.3,1.7,3.8,2.4c1.5,0.7,3.2,1.5,5,2.3
		c1.8,0.8,3.5,1.7,5,2.8c1.5,1.1,2.8,2.5,3.8,4.1c1,1.6,1.5,3.7,1.5,6.1c0,2.4-0.4,4.5-1.2,6.3c-0.8,1.8-1.9,3.2-3.4,4.4
		c-1.5,1.2-3.2,2-5.3,2.6c-2.1,0.6-4.3,0.8-6.8,0.8c-3.3,0-6.1-0.3-8.6-0.9c-2.5-0.6-4.3-1.2-5.5-1.8l2.9-7.6
		c0.5,0.3,1.1,0.5,1.9,0.8c0.8,0.3,1.6,0.6,2.6,0.8c1,0.3,2,0.5,3,0.7c1.1,0.2,2.2,0.3,3.3,0.3c2.6,0,4.7-0.4,6.1-1.3
		C256.4,59.4,257.1,58.1,257.1,56.3z"/>
	<path class="st1" d="M283.3,44.7l-3.6-7.2h-0.3l1,7.2v23.8H272V22.6h6.5l17.3,24.3l3.5,7h0.3l-1-7v-24h8.5v45.9h-6.5L283.3,44.7z"
		/>
	<path class="st1" d="M339.5,22.9h8.5v29.4c0,3-0.4,5.5-1.2,7.6c-0.8,2.1-1.9,3.9-3.3,5.3c-1.4,1.4-3.1,2.4-5.1,3.1
		c-2,0.7-4.2,1-6.6,1c-11.5,0-17.3-5.3-17.3-15.8V22.9h8.9v28.8c0,1.8,0.2,3.3,0.5,4.5c0.3,1.2,0.8,2.2,1.5,3
		c0.7,0.8,1.6,1.3,2.6,1.6s2.3,0.5,3.6,0.5c2.7,0,4.7-0.8,5.9-2.3c1.2-1.5,1.8-4,1.8-7.4V22.9z"/>
	<path class="st1" d="M355.6,22.9c0.9-0.1,1.9-0.2,3.1-0.3c1.1-0.1,2.3-0.2,3.5-0.2c1.2,0,2.4-0.1,3.5-0.1c1.1,0,2.2,0,3.1,0
		c4,0,7.5,0.6,10.4,1.7c2.9,1.1,5.2,2.7,7,4.8c1.8,2,3.1,4.5,3.9,7.3c0.8,2.8,1.2,5.9,1.2,9.3c0,3.1-0.4,6.1-1.2,8.9
		c-0.8,2.9-2.1,5.4-3.9,7.6c-1.8,2.2-4.2,4-7.2,5.3c-3,1.3-6.7,2-11,2c-0.7,0-1.6,0-2.8-0.1c-1.2,0-2.3-0.1-3.6-0.2
		c-1.2-0.1-2.4-0.1-3.5-0.2c-1.1-0.1-2-0.1-2.5-0.2V22.9z M369.6,30.2c-1,0-1.9,0-2.9,0.1c-1,0-1.7,0.1-2.2,0.2V61
		c0.2,0,0.5,0.1,0.9,0.1c0.4,0,0.9,0,1.3,0.1c0.5,0,0.9,0,1.4,0.1c0.4,0,0.8,0,1,0c2.5,0,4.6-0.4,6.3-1.3c1.7-0.9,3-2.1,4-3.5
		c1-1.5,1.7-3.2,2.1-5.1c0.4-1.9,0.6-3.9,0.6-6c0-1.8-0.2-3.6-0.5-5.4c-0.3-1.8-1-3.4-1.9-4.9c-0.9-1.4-2.2-2.6-3.8-3.5
		C374.1,30.7,372,30.2,369.6,30.2z"/>
	<path class="st1" d="M396.2,45.7c0-7.6,1.7-13.4,5-17.5c3.3-4.1,8.1-6.2,14.3-6.2c3.3,0,6.1,0.6,8.5,1.7c2.4,1.1,4.4,2.7,6.1,4.8
		c1.6,2.1,2.8,4.6,3.6,7.5c0.8,2.9,1.2,6.1,1.2,9.7c0,7.6-1.7,13.4-5,17.5c-3.4,4.1-8.1,6.2-14.3,6.2c-3.3,0-6.2-0.6-8.6-1.7
		c-2.4-1.1-4.4-2.7-6-4.8c-1.6-2.1-2.8-4.6-3.5-7.5C396.6,52.5,396.2,49.3,396.2,45.7z M405.6,45.7c0,2.3,0.2,4.4,0.6,6.3
		c0.4,1.9,1,3.6,1.8,5c0.8,1.4,1.8,2.5,3.1,3.3c1.3,0.8,2.8,1.2,4.5,1.2c3.2,0,5.6-1.2,7.4-3.7c1.7-2.5,2.6-6.5,2.6-12
		c0-2.2-0.2-4.3-0.6-6.2c-0.4-1.9-0.9-3.6-1.7-5c-0.8-1.4-1.8-2.5-3.1-3.4c-1.3-0.8-2.8-1.2-4.6-1.2c-3.2,0-5.6,1.3-7.4,3.8
		C406.5,36.3,405.6,40.3,405.6,45.7z"/>
</g>
<g>
	<path class="st2" d="M460.5,54.9c-0.3,0.7-0.7,1.6-1.1,2.5c-0.4,1-0.8,2-1.3,3.1c-0.5,1.1-0.9,2.1-1.4,3.2c-0.5,1.1-1,2-1.6,2.8
		c-0.6,0.8-1.1,1.5-1.7,2c-0.6,0.5-1.2,0.8-1.8,0.8c-0.5,0-0.9-0.1-1.3-0.2c-0.3-0.2-0.6-0.4-0.8-0.6c-0.2-0.2-0.3-0.5-0.4-0.8
		c-0.1-0.3-0.1-0.6-0.1-0.8c0-0.4,0.1-0.8,0.2-1.2c0.1-0.4,0.3-0.8,0.5-1.2l9.6-17.7c0.4-0.7,0.8-1.3,1.2-1.7
		c0.4-0.4,0.7-0.7,1.1-0.9c0.3-0.2,0.6-0.3,0.9-0.4c0.3,0,0.5-0.1,0.6-0.1c0.3,0,0.6,0.1,0.8,0.3c0.3,0.2,0.4,0.6,0.4,1.1
		c0,0.5-0.1,1.3-0.4,2.2c-0.3,0.9-0.8,2.1-1.6,3.6c1.3-0.1,2.6-0.3,3.9-0.7c1.3-0.3,2.4-0.8,3.4-1.4c1-0.6,1.8-1.3,2.5-2.2
		c0.6-0.9,0.9-1.9,0.9-3c0-1-0.2-2-0.5-2.9c-0.3-0.9-0.8-1.7-1.4-2.4c-0.6-0.7-1.4-1.2-2.3-1.7c-0.9-0.4-2-0.6-3.2-0.6
		c-1.6,0-3.1,0.2-4.2,0.5c-1.2,0.3-2.2,0.7-3,1.2c-0.8,0.5-1.6,1.1-2.1,1.7c-0.6,0.7-1.1,1.3-1.5,2c-0.4,0.7-0.8,1.3-1.1,2
		c-0.3,0.7-0.7,1.2-1,1.7c-0.3,0.5-0.7,0.9-1.2,1.2c-0.4,0.3-1,0.5-1.6,0.5c-0.8,0-1.4-0.2-1.8-0.6c-0.4-0.4-0.6-1-0.6-1.8
		c0-0.8,0.2-1.6,0.6-2.5c0.4-0.9,1-1.8,1.8-2.8c0.8-0.9,1.7-1.8,2.8-2.7c1.1-0.8,2.3-1.6,3.7-2.3c1.4-0.7,2.9-1.2,4.5-1.6
		c1.6-0.4,3.3-0.6,5.1-0.6c1.7,0,3.3,0.2,4.8,0.7c1.6,0.5,2.9,1.2,4.1,2.2c1.2,1,2.1,2.2,2.9,3.6c0.7,1.4,1.1,3.1,1.1,5
		c0,1.8-0.4,3.4-1.3,4.8c-0.8,1.4-2,2.6-3.4,3.6c-1.4,1-3.1,1.7-5,2.3c-1.9,0.5-3.9,0.8-5.9,0.8c-0.4,0-0.9,0-1.3,0
		C461.4,55,460.9,55,460.5,54.9z"/>
	<path class="st2" d="M484.9,50.2c0.6,0,1.3,0.1,2.1,0.3c0.7,0.2,1.4,0.5,2,0.9c0.6,0.4,1.1,0.9,1.5,1.6c0.4,0.7,0.6,1.5,0.6,2.5
		c0,0.5-0.1,1.1-0.2,1.7c-0.1,0.6-0.3,1.3-0.6,2c0.2,0.2,0.4,0.3,0.6,0.4c0.2,0.1,0.5,0.1,0.7,0.1c0.4,0,0.7-0.1,1.2-0.3
		c0.4-0.2,0.9-0.5,1.3-0.8c0.5-0.3,0.9-0.7,1.4-1.1s0.9-0.8,1.3-1.2c0.4-0.4,0.8-0.8,1.1-1.1c0.3-0.4,0.6-0.7,0.8-0.9
		c0.1-0.1,0.3-0.2,0.4-0.2c0.2,0,0.4,0.1,0.6,0.4c0.2,0.2,0.3,0.6,0.3,1c0,0.4-0.1,0.9-0.4,1.5c-0.3,0.6-0.7,1.2-1.4,1.8
		c-0.4,0.4-0.9,0.9-1.4,1.5c-0.5,0.6-1.1,1.1-1.7,1.6c-0.6,0.5-1.2,0.9-1.8,1.3c-0.6,0.4-1.3,0.5-1.9,0.5c-0.4,0-0.9-0.1-1.3-0.2
		c-0.4-0.1-0.8-0.4-1.2-0.7c-0.6,0.9-1.3,1.8-2.1,2.6c-0.8,0.8-1.6,1.4-2.6,2c-0.9,0.6-2,1-3.1,1.3c-1.1,0.3-2.3,0.5-3.5,0.5
		c-0.5,0-1-0.1-1.6-0.3c-0.6-0.2-1.2-0.5-1.8-0.9c-0.6-0.4-1-1-1.4-1.7c-0.4-0.7-0.6-1.5-0.6-2.5c0-0.7,0.1-1.5,0.3-2.4
		c0.2-0.9,0.5-1.9,1-2.9c0.4-1,1-2,1.7-3c0.7-1,1.5-1.9,2.4-2.6c0.9-0.8,2-1.4,3.2-1.9C482,50.4,483.4,50.2,484.9,50.2z M483.5,54.6
		c-0.8,0-1.5,0.2-2.3,0.6c-0.7,0.4-1.4,0.9-1.9,1.6c-0.6,0.6-1,1.4-1.3,2.2c-0.3,0.8-0.5,1.6-0.5,2.5c0,0.3,0,0.7,0.1,1
		c0.1,0.4,0.2,0.7,0.3,1.1c0.2,0.3,0.4,0.6,0.7,0.8c0.3,0.2,0.7,0.3,1.2,0.3c0.8,0,1.5-0.2,2.3-0.6c0.7-0.4,1.4-0.9,2-1.6
		c0.6-0.7,1-1.4,1.4-2.3c0.3-0.8,0.5-1.7,0.5-2.5c0-0.3,0-0.7-0.1-1c0-0.4-0.1-0.7-0.3-1c-0.2-0.3-0.4-0.5-0.7-0.7
		C484.5,54.7,484.1,54.6,483.5,54.6z"/>
	<path class="st2" d="M510.6,63.3c0,0,0,0.1,0,0.1c0,0.1,0,0.1,0,0.1c0,0.3,0.1,0.6,0.2,0.9c0.2,0.3,0.4,0.5,0.7,0.5
		c0.1,0,0.2,0,0.3-0.1c1-0.3,1.9-0.7,2.9-1.4c1-0.6,1.9-1.3,2.8-2c0.9-0.7,1.7-1.5,2.5-2.3c0.8-0.8,1.4-1.5,1.9-2.1
		c0.2-0.3,0.5-0.4,0.8-0.4c0.3,0,0.5,0.1,0.7,0.4c0.2,0.2,0.3,0.6,0.3,1c0,0.3-0.1,0.7-0.3,1.1c-0.2,0.4-0.5,0.9-0.9,1.4
		c-1,1.1-2,2.1-3,3.1c-1,1-2.1,1.9-3.1,2.7c-1.1,0.8-2.1,1.4-3.2,1.9c-1,0.5-2.1,0.7-3.1,0.7c-1.2,0-2.2-0.3-2.9-1s-1.1-1.7-1.1-3.1
		c0-0.1,0-0.2,0-0.3c0-0.1,0-0.2,0-0.3c-0.4,0.7-0.9,1.3-1.5,1.9s-1.3,1.1-2,1.5c-0.7,0.4-1.5,0.7-2.2,1c-0.8,0.2-1.5,0.3-2.2,0.3
		c-0.6,0-1.2-0.1-1.7-0.3c-0.5-0.2-1-0.4-1.3-0.8c-0.4-0.4-0.7-0.8-0.9-1.4c-0.2-0.6-0.3-1.3-0.3-2.1c0-1.4,0.2-2.7,0.7-4
		c0.4-1.3,1-2.4,1.7-3.5c0.7-1.1,1.5-2,2.5-2.9c0.9-0.8,1.9-1.6,2.9-2.2c1-0.6,2-1.1,3-1.4c1-0.3,1.9-0.5,2.7-0.5
		c1,0,1.8,0.2,2.5,0.5c0.3,0.2,0.6,0.4,0.9,0.7c0.1-0.2,0.1-0.3,0.2-0.4c0.2-0.4,0.3-0.8,0.5-1c0.1-0.3,0.2-0.5,0.3-0.6
		c0.1-0.2,0.2-0.5,0.4-1.1c0.2-0.6,0.5-1.2,0.8-2c0.3-0.7,0.6-1.5,1-2.4c0.4-0.9,0.7-1.7,1-2.4c0.3-0.8,0.6-1.4,0.8-2
		c0.2-0.5,0.4-0.9,0.4-1c0.1-0.4,0.3-0.8,0.5-1.2c0.2-0.4,0.4-0.7,0.7-1c0.3-0.3,0.6-0.5,1-0.7c0.4-0.2,0.8-0.3,1.3-0.3
		c0.6,0,1.2,0.1,1.6,0.4c0.4,0.3,0.6,0.8,0.6,1.6c0,0.3,0,0.6-0.1,1c-0.1,0.3-0.2,0.7-0.3,1c-0.1,0.3-0.2,0.6-0.4,0.9
		c-0.1,0.3-0.2,0.6-0.3,0.9c-0.8,1.7-1.7,3.5-2.6,5.5c-0.9,2-1.8,4-2.7,6c-0.9,2-1.8,3.9-2.6,5.8C511.9,60.1,511.2,61.8,510.6,63.3z
		 M509.8,53.5c-1,0-2.1,0.3-3.2,0.7c-1.3,0.4-2.4,1.1-3.5,2c-1.1,0.9-2,1.9-2.7,3.2c-0.7,1.3-1.1,2.7-1.2,4.3c0,0.7,0.3,1,0.9,1
		c0.7,0,1.4-0.1,2-0.4c0.6-0.3,1.2-0.7,1.8-1.2c0.6-0.5,1.1-1.1,1.6-1.7c0.5-0.6,1-1.3,1.4-2c0.4-0.7,0.8-1.4,1.2-2.1
		c0.3-0.7,0.6-1.3,0.9-1.9c0.1-0.2,0.2-0.4,0.4-0.8C509.5,54.3,509.6,53.9,509.8,53.5z"/>
	<path class="st2" d="M533.8,52.5c0,0.5-0.1,1.1-0.2,1.7c-0.1,0.6-0.3,1.2-0.6,1.8c-0.3,0.6-0.6,1-1,1.4c-0.4,0.4-0.9,0.6-1.6,0.6
		c-0.3,0-0.5-0.1-0.6-0.2c-0.1-0.1-0.1-0.3-0.1-0.5c0-0.2,0-0.4,0-0.7c0-0.3,0-0.6,0-0.8c0-0.3,0-0.6-0.1-0.8
		c-0.1-0.2-0.3-0.3-0.6-0.3c-0.4,0-0.8,0.1-1.3,0.4c-0.5,0.3-1,0.7-1.4,1.1c-0.5,0.5-0.9,1-1.4,1.6c-0.5,0.6-0.9,1.2-1.2,1.8
		c-0.4,0.6-0.6,1.2-0.9,1.8c-0.2,0.6-0.3,1.1-0.3,1.5c0,0.6,0.2,1,0.6,1.4c0.4,0.3,1,0.5,1.7,0.5c0.8,0,1.6-0.1,2.4-0.4
		s1.7-0.6,2.6-1c0.8-0.4,1.7-0.8,2.5-1.3c0.8-0.5,1.5-0.9,2.2-1.3c0.6-0.4,1.2-0.8,1.6-1.1c0.4-0.3,0.7-0.5,0.9-0.5
		c0.3-0.1,0.5-0.2,0.8-0.2c0.2,0,0.4,0,0.5,0.1c0.1,0.1,0.3,0.2,0.3,0.3c0.1,0.1,0.1,0.3,0.2,0.4c0,0.1,0.1,0.3,0.1,0.4
		c0,0.2,0,0.3-0.1,0.5c0,0.2-0.2,0.4-0.4,0.7c-0.1,0.1-0.4,0.4-0.8,0.8c-0.5,0.4-1.1,0.9-1.8,1.4c-0.7,0.6-1.6,1.1-2.5,1.8
		c-0.9,0.6-2,1.2-3,1.7c-1.1,0.5-2.2,1-3.4,1.3s-2.3,0.5-3.4,0.5c-0.9,0-1.6-0.1-2.3-0.4c-0.7-0.3-1.2-0.6-1.7-1.1
		c-0.5-0.5-0.8-1-1-1.6c-0.2-0.6-0.4-1.3-0.4-2c0-0.8,0.2-1.6,0.5-2.6c0.4-1,0.8-2,1.5-3c0.6-1,1.4-2,2.2-3c0.8-1,1.7-1.9,2.7-2.6
		c1-0.8,2-1.4,3.1-1.9c1.1-0.5,2.1-0.7,3.2-0.7c0.4,0,0.7,0,1,0.1c0.3,0.1,0.6,0.2,0.9,0.4c0.2,0.2,0.4,0.4,0.6,0.7
		C533.7,51.7,533.8,52.1,533.8,52.5z"/>
	<path class="st2" d="M563.2,61.2c-0.3,0.3-0.7,0.7-1.2,1.2s-1.1,1-1.7,1.6c-0.6,0.6-1.3,1.2-2.1,1.8c-0.7,0.6-1.5,1.1-2.2,1.6
		c-0.8,0.5-1.5,0.9-2.3,1.2c-0.7,0.3-1.4,0.5-2.1,0.5c-0.6,0-1.1-0.1-1.5-0.4c-0.4-0.3-0.8-0.6-1-1c-0.3-0.4-0.5-0.9-0.6-1.4
		c-0.1-0.5-0.2-1-0.2-1.6c0-0.4,0-0.7,0.1-1c0.1-0.3,0.1-0.7,0.3-1c-0.5,0.7-1.1,1.4-1.8,2.2c-0.7,0.7-1.4,1.4-2.1,2
		c-0.8,0.6-1.6,1.1-2.4,1.5c-0.8,0.4-1.7,0.6-2.5,0.6c-0.4,0-0.9-0.1-1.5-0.3c-0.6-0.2-1.1-0.5-1.6-0.9c-0.5-0.4-1-0.9-1.3-1.6
		c-0.4-0.6-0.5-1.4-0.5-2.3c0-0.7,0.1-1.5,0.3-2.5c0.2-1,0.5-2,1-3c0.4-1,1-2.1,1.6-3.1c0.7-1,1.4-1.9,2.4-2.7
		c0.9-0.8,1.9-1.4,3.1-1.9c1.2-0.5,2.4-0.7,3.9-0.7c0.7,0,1.4,0.1,1.9,0.3c0.6,0.2,1,0.4,1.4,0.6c0.4,0.3,0.8,0.6,1.2,0.9
		c0.3-0.2,0.6-0.3,0.9-0.4c0.3-0.1,0.5-0.2,0.8-0.3c0.3-0.1,0.5-0.1,0.7-0.1c0.6,0,1.2,0.2,1.6,0.5c0.4,0.4,0.6,0.7,0.6,1.2
		c0,0.1,0,0.2,0,0.3c-0.1,0.3-0.2,0.7-0.4,1.2c-0.2,0.5-0.4,1-0.6,1.6c-0.2,0.6-0.4,1.2-0.7,1.9c-0.2,0.6-0.4,1.3-0.6,1.9
		c-0.2,0.6-0.3,1.2-0.5,1.7c-0.1,0.5-0.2,1-0.2,1.4c0,0.5,0.1,0.9,0.3,1.2c0.2,0.3,0.5,0.5,0.9,0.5c0.3,0,0.5-0.1,0.9-0.2
		c0.3-0.2,0.7-0.4,1.1-0.6c0.4-0.3,0.8-0.6,1.2-0.9c0.4-0.3,0.8-0.7,1.2-1c0.9-0.8,1.9-1.8,3-2.9c0.3-0.2,0.5-0.3,0.8-0.3
		c0.3,0,0.6,0.2,0.8,0.5c0.2,0.3,0.3,0.7,0.3,1.1C563.7,60.5,563.5,60.9,563.2,61.2z M545.8,54.7c-0.8,0-1.6,0.2-2.3,0.6
		c-0.7,0.4-1.4,0.9-2,1.6c-0.6,0.7-1,1.4-1.4,2.2c-0.3,0.8-0.5,1.6-0.5,2.5c0,0.3,0,0.7,0.1,1c0,0.4,0.1,0.7,0.3,1
		c0.2,0.3,0.4,0.6,0.6,0.8c0.3,0.2,0.7,0.3,1.1,0.3c0.4,0,0.8-0.2,1.3-0.5c0.5-0.3,1-0.7,1.5-1.3c0.5-0.5,1-1.1,1.5-1.7
		c0.5-0.6,1-1.2,1.4-1.8c0.4-0.6,0.7-1.1,1-1.6c0.3-0.5,0.4-0.8,0.4-1c0-0.3-0.1-0.6-0.3-0.9c-0.2-0.3-0.5-0.5-0.8-0.7
		c-0.3-0.2-0.7-0.3-1-0.4C546.4,54.8,546,54.7,545.8,54.7z"/>
	<path class="st2" d="M567.8,54.3c1,0.5,1.9,1.1,2.7,1.8c0.8,0.7,1.5,1.4,2.1,2.2c0.6,0.8,1,1.5,1.3,2.3c0.3,0.8,0.4,1.6,0.4,2.3
		c0,1-0.3,1.8-0.8,2.6c-0.5,0.8-1.3,1.4-2.1,1.9c-0.9,0.5-1.9,0.9-3,1.2c-1.1,0.3-2.3,0.4-3.4,0.4c-0.9,0-1.7-0.1-2.5-0.3
		c-0.8-0.2-1.6-0.5-2.3-0.9c-0.7-0.4-1.3-0.9-1.7-1.5c-0.5-0.6-0.8-1.4-1-2.3c0-0.1-0.1-0.2-0.1-0.3c0-0.5,0.2-0.8,0.5-1.2
		c0.3-0.3,0.7-0.5,1.1-0.5c0.2,0,0.4,0,0.6,0.1c0.2,0.1,0.4,0.2,0.5,0.5c0.2,0.4,0.5,0.8,0.9,1.1c0.4,0.3,0.8,0.6,1.3,0.8
		c0.5,0.2,1,0.4,1.5,0.5c0.5,0.1,1.1,0.2,1.6,0.2c0.5,0,1.1-0.1,1.5-0.2c0.5-0.1,0.9-0.3,1.3-0.5c0.4-0.2,0.7-0.5,0.9-0.8
		c0.2-0.3,0.3-0.7,0.3-1.2c0-0.9-0.2-1.6-0.6-2.4c-0.4-0.7-0.9-1.4-1.5-2c-0.6-0.6-1.3-1.2-2.1-1.7c-0.8-0.5-1.6-1-2.3-1.5
		c-0.1-0.1-0.2-0.2-0.4-0.4c-0.2-0.2-0.3-0.5-0.3-0.7c0-0.2,0.1-0.4,0.2-0.5c0.3-0.4,0.6-0.7,0.9-1.1c0.4-0.4,0.7-0.7,1.1-1
		c0.4-0.3,0.8-0.6,1.3-0.8c0.5-0.2,1-0.3,1.5-0.3c0.4,0,0.7,0.1,1,0.2c0.3,0.1,0.6,0.2,0.8,0.4c0.2,0.2,0.4,0.3,0.5,0.5
		c0.1,0.2,0.2,0.4,0.2,0.5c0,0.2-0.1,0.5-0.2,0.7c-0.1,0.2-0.3,0.4-0.5,0.6c-0.2,0.2-0.4,0.4-0.7,0.6
		C568.3,53.9,568.1,54.1,567.8,54.3z"/>
	<path class="st2" d="M583.5,54.5c-0.6,1.2-1.2,2.4-1.8,3.5c-0.6,1.1-1.1,2.2-1.6,3.2c-0.2,0.4-0.4,0.9-0.6,1.4
		c-0.2,0.5-0.3,1-0.3,1.4c0,0.2,0.1,0.4,0.2,0.6c0.1,0.1,0.3,0.2,0.5,0.2c0.4,0,0.8-0.1,1.3-0.3c0.5-0.2,1.1-0.5,1.7-0.8
		c0.6-0.3,1.3-0.7,2-1.2c0.7-0.4,1.4-0.9,2-1.4c0.7-0.5,1.3-1,1.9-1.4c0.6-0.5,1.1-0.9,1.6-1.3c0.3-0.2,0.5-0.3,0.8-0.3
		c0.3,0,0.5,0.1,0.7,0.4c0.2,0.3,0.3,0.6,0.3,1c0,0.4-0.1,0.8-0.3,1.2c-0.2,0.4-0.5,0.8-1,1.2c-1.1,1-2.2,1.9-3.3,2.8
		c-1.1,0.9-2.2,1.7-3.3,2.4c-1.1,0.7-2.2,1.2-3.3,1.6c-1.1,0.4-2.1,0.6-3.1,0.6c-0.7,0-1.2-0.1-1.7-0.3s-0.8-0.4-1.1-0.7
		c-0.3-0.3-0.5-0.7-0.6-1.1c-0.1-0.4-0.2-0.9-0.2-1.3c0-0.8,0.1-1.7,0.4-2.6c0.3-0.9,0.6-1.7,1-2.4c0.5-1,1-2.1,1.5-3.1
		c0.5-1,1-2,1.4-2.9h-1.1c-0.9,0-1.6-0.2-1.9-0.5c-0.4-0.3-0.5-0.6-0.5-1c0-0.2,0.1-0.4,0.2-0.6c0.1-0.2,0.3-0.5,0.5-0.7
		c0.2-0.2,0.5-0.4,0.8-0.5c0.3-0.2,0.6-0.2,1-0.2h2.7l5.3-10.5c0.3-0.6,0.8-1.1,1.2-1.4c0.5-0.3,1-0.4,1.5-0.4c0.5,0,1,0.1,1.4,0.4
		c0.4,0.3,0.6,0.7,0.6,1.3c0,0.3-0.1,0.6-0.2,1c-0.1,0.3-0.3,0.7-0.6,1.1c-0.2,0.3-0.3,0.6-0.6,1c-0.2,0.4-0.4,0.8-0.7,1.3
		c-0.2,0.4-0.5,0.9-0.8,1.4c-0.3,0.5-0.5,1-0.8,1.4c-0.6,1.1-1.2,2.2-1.8,3.4h8.2c0.4,0,0.8,0,1.1,0.1c0.3,0,0.6,0.1,0.9,0.3
		c0.2,0.1,0.4,0.3,0.6,0.5c0.1,0.2,0.2,0.5,0.2,0.9c0,0.2,0,0.4-0.1,0.6c-0.1,0.2-0.2,0.4-0.3,0.5c-0.2,0.2-0.4,0.3-0.7,0.4
		c-0.3,0.1-0.6,0.2-1.1,0.2L583.5,54.5z"/>
</g>
</svg>
